<?xml version="1.0" standalone="no"?> <!DOCTYPE svg PUBLIC "-//W3C//DTD SVG 1.0//EN" "http://www.w3.org/TR/2001/REC-SVG-20010904/DTD/svg10.dtd" > <svg xmlns="http://www.w3.org/2000/svg" width="100%" height="100%">
<defs >
<font horiz-adv-x="1185" ><font-face
    font-family="Linux Libertine"
    units-per-em="2048"
    panose-1="2 0 7 3 0 0 0 0 0 0"
    ascent="1831"
    descent="-504"
    alphabetic="0" />
<missing-glyph horiz-adv-x="1024" d="M102 1239V195L451 717L102 1239ZM164 102H860L512 625L164 102ZM573 717L922 195V1239L573 717ZM512 809L860 1331H164L512 809ZM0 0V1434H1024V0H0Z" />
<glyph unicode=" " glyph-name="space" horiz-adv-x="512" />
<glyph unicode="!" glyph-name="exclam" horiz-adv-x="499" d="M250 1348Q311 1348 354 1308T397 1194Q397 1135 369 977Q312 627 307 471Q305 385 250 385Q213 385 202 410T188 496Q182 699 131 983Q102 1126 102 1194Q102 1272 147 1310T250 1348ZM133 45T133
92T167 173T248 207T328 173T362 92T329 13T248 -20T167 12Z" />
<glyph unicode="&quot;" glyph-name="quotedbl" horiz-adv-x="749" d="M225 862L195 870Q129 1198 129 1210Q129 1251 165 1286T262 1321Q303 1321 324 1309T350 1282T354 1245L279 874L225 862ZM494 862L463 870Q397 1198 397 1210Q397 1251 433 1286T530 1321Q571
1321 592 1309T618 1282T623 1245L547 874L494 862Z" />
<glyph unicode="#" glyph-name="numbersign" horiz-adv-x="948" d="M524 485L557 690H414Q408 653 397 587T379 485H524ZM696 690L664 485H862L846 371H647Q641 332 630 261T609 133T592 27H453L508 371H362Q352 318 334 202T305 27H162L215 371H35L51 485H233Q253
608 266 690H84L102 807H285Q293 862 311 978T340 1149H485L428 807H575Q585 862 603 978T629 1149H768L715 807H911L895 690H696Z" />
<glyph unicode="$" glyph-name="dollar" horiz-adv-x="897" d="M200 20T186 20T156 9T117 -2Q117 70 84 299L174 305Q233 76 397 54V530Q337 552 291 576T194 643T115 747T86 889Q86 971 137 1034T255 1129T397 1169V1284H479V1170Q517 1168 571 1163T650 1155T711
1155Q715 1083 752 862L664 854L651 891Q620 998 586 1043T479 1098V682Q532 666 586 637T696 564T787 456T823 319Q823 255 806 200T752 95T644 14T479 -23V-166H397V-23Q335 -19 268 0ZM479 55Q544 67 589 114T635 260Q635 412 479 496V55ZM397 1096Q258 1071
258 897Q258 846 299 797T397 714V1096Z" />
<glyph unicode="%" glyph-name="percent" horiz-adv-x="1304" d="M907 158Q907 99 926 64T977 29Q1051 29 1101 127T1151 322Q1151 439 1071 438Q1008 438 958 345T907 158ZM768 186Q768 317 844 414T1049 512Q1237 512 1237 326Q1237 172 1160 67T965 -39Q871
-39 820 22T768 186ZM745 1063Q956 1063 1053 1165L1149 1122L307 -33L197 -8L946 1018Q831 971 725 971Q647 971 573 1014Q579 989 580 971Q580 832 501 720T295 608Q109 608 109 831Q109 966 187 1061T389 1157Q491 1157 526 1114Q636 1063 745 1063ZM250 803Q250
746 269 711T317 676Q385 676 438 774T492 969Q492 1084 412 1083Q342 1083 296 992T250 803Z" />
<glyph unicode="&amp;" glyph-name="ampersand" horiz-adv-x="1492" d="M553 1071Q553 983 637 860Q696 907 725 932T783 1000T813 1079Q813 1255 690 1255Q635 1255 594 1208T553 1071ZM811 250Q606 520 518 659Q407 587 365 517T322 348Q322 219 382 141T524
63Q608 63 673 106T811 250ZM1135 727Q1172 815 1053 823Q1037 823 1036 838V887L1044 893Q1173 889 1255 889L1425 893L1430 889V842Q1430 826 1407 823Q1362 821 1329 793T1253 698Q1083 444 1006 319Q1014 307 1030 280T1057 236T1082 197T1109 160T1134 131T1163
111T1190 104Q1235 104 1266 129T1335 223L1401 176Q1335 55 1276 18T1137 -20Q1063 -20 1010 15T883 160Q803 72 718 26T506 -20Q311 -20 196 59T80 307Q80 424 164 519T475 745Q348 942 348 1067Q348 1169 447 1254T711 1339Q852 1339 928 1278T1004 1100Q1004
1022 920 931T700 762Q769 642 916 438Q922 427 932 425T948 430Q1090 616 1135 727Z" />
<glyph unicode="&apos;" glyph-name="quotesingle" horiz-adv-x="440" d="M201 862L170 870Q104 1198 104 1210Q104 1251 140 1286T238 1321Q279 1321 300 1309T326 1282T330 1245L254 874L201 862Z" />
<glyph unicode="(" glyph-name="parenleft" horiz-adv-x="645" d="M74 518Q74 786 207 1038T553 1475L610 1405Q309 1053 309 518Q309 -33 610 -371L549 -436Q418 -323 322 -190T180 45T109 259T78 421T74 518Z" />
<glyph unicode=")" glyph-name="parenright" horiz-adv-x="645" d="M571 514Q571 246 438 -6T92 -442L35 -373Q336 -21 336 514Q336 1065 35 1403L96 1468Q227 1355 323 1223T465 988T536 774T567 612T571 514Z" />
<glyph unicode="*" glyph-name="asterisk" horiz-adv-x="886" d="M403 1159Q329 1171 319 1169Q249 1151 202 1166T154 1245Q154 1270 171 1290T221 1311Q260 1311 319 1266T416 1204Q412 1247 383 1306T354 1391Q354 1422 378 1446T432 1470Q463 1470 488 1452T514
1399Q514 1370 490 1303T463 1204Q504 1222 556 1268T645 1315Q686 1315 705 1292T725 1245Q725 1163 584 1163Q510 1163 473 1157Q498 1130 546 1106T620 1056T647 983Q647 956 627 940T582 924Q537 924 513 955T471 1045T436 1130Q420 1099 406 1040T369 953T293
924Q266 924 250 941T233 981Q233 1030 260 1055T332 1105T403 1159Z" />
<glyph unicode="+" glyph-name="plus" horiz-adv-x="1099" d="M627 551H977V399H627V66H475V399H125V551H475V887H627V551Z" />
<glyph unicode="," glyph-name="comma" horiz-adv-x="499" d="M254 209Q383 209 383 -12Q383 -96 310 -179T125 -281Q94 -261 111 -217Q183 -199 233 -146T283 -55Q283 -6 213 2Q125 20 125 102Q125 147 161 178T254 209Z" />
<glyph unicode="-" glyph-name="hyphen" horiz-adv-x="733" d="M563 451H154Q78 451 78 494Q78 523 107 557T168 592H582Q656 592 655 549Q655 524 626 488T563 451Z" />
<glyph unicode="." glyph-name="period" horiz-adv-x="499" d="M135 45T135 92T169 173T250 207T331 173T365 92T331 13T250 -20T169 12Z" />
<glyph unicode="/" glyph-name="slash" horiz-adv-x="647" d="M618 1397L133 -43H4L489 1397H618Z" />
<glyph unicode="0" glyph-name="zero" horiz-adv-x="1003" d="M506 1159Q481 1159 460 1147T413 1097T368 999T336 831T324 582Q324 508 332 427T358 261T414 122T500 68Q516 68 536 78T586 132T635 250Q682 428 682 662Q682 852 648 969T567 1128Q533 1159 506
1159ZM498 -20Q316 -20 199 163T82 602Q82 893 208 1071T506 1249Q582 1249 658 1207T786 1104Q921 918 922 623Q922 453 881 322T774 120T638 15T498 -20Z" />
<glyph unicode="1" glyph-name="one" horiz-adv-x="1003" d="M424 166V881Q424 930 420 954T409 984T389 989Q369 989 299 966T166 909L129 977Q217 1020 368 1111T543 1214Q602 1249 628 1249T655 1214Q649 1085 649 977V166Q649 152 651 141T656 120T666 104T678
91T694 82T712 76T733 72T757 70T784 68T813 66Q823 58 823 31T813 -4Q682 0 539 0Q349 0 217 -4Q209 4 209 30T217 66Q349 75 385 97Q424 120 424 166Z" />
<glyph unicode="2" glyph-name="two" horiz-adv-x="1003" d="M104 952Q104 1058 207 1153T481 1249Q555 1249 619 1234T743 1186T836 1088T870 932Q870 828 799 731T567 477Q557 467 500 413T411 326T347 245T315 162H647Q704 162 734 196T791 336L879 317Q854
204 834 0H102Q102 94 150 183T346 430L494 586Q570 668 598 743T627 924Q627 1049 575 1108T467 1167Q391 1167 340 1127T289 1047Q289 1012 297 993Q303 977 303 950Q303 907 274 886T205 864Q164 864 134 889T104 952Z" />
<glyph unicode="3" glyph-name="three" horiz-adv-x="1003" d="M479 1167Q413 1167 354 1132T295 1014Q295 901 199 901Q160 901 139 920T114 953T111 977Q111 1008 130 1050T191 1139T319 1217T518 1249Q676 1249 746 1179T817 1024Q817 967 765 882T594 745Q705
733 794 646T883 418Q883 211 745 94T403 -23Q292 -23 190 17T88 119Q88 148 119 171T195 195Q265 195 297 141Q344 61 430 61Q496 61 570 139T645 389Q645 645 426 645Q412 645 319 625L307 707Q469 744 537 823T606 991Q606 1073 567 1120T479 1167Z" />
<glyph unicode="4" glyph-name="four" horiz-adv-x="1003" d="M555 1010Q416 822 184 449H555V1010ZM956 449Q987 449 987 416Q987 396 968 371T928 346H766V166Q766 133 771 114T797 85T831 74T889 67Q903 65 909 66Q917 58 917 31T909 -4Q778 0 631 0Q520 0
389 -4Q381 4 381 30T389 66Q499 74 526 95Q555 118 555 166V346H137Q76 346 57 438Q374 936 612 1227Q630 1250 645 1249H766L770 1245Q766 1227 766 1047V449H956Z" />
<glyph unicode="5" glyph-name="five" horiz-adv-x="1003" d="M647 381Q647 526 588 615T449 705Q334 705 170 635L242 1243Q389 1231 496 1231Q637 1231 815 1251L854 1231L823 1090Q667 1078 596 1077Q420 1077 328 1087Q324 1040 319 996T306 897T295 805Q373
821 500 821Q678 821 780 705T883 426Q883 242 754 108T432 -27Q321 -27 208 22T94 133Q94 168 120 193T193 219Q271 219 309 141Q327 106 362 85T424 63Q510 63 578 151T647 381Z" />
<glyph unicode="6" glyph-name="six" horiz-adv-x="1003" d="M315 573Q313 550 313 492Q313 256 378 157T526 57Q587 57 631 131T676 356Q676 399 667 444T638 539T577 621T477 653Q393 653 315 573ZM858 1186Q790 1182 749 1175T633 1131T494 1028Q377 907 334
696Q426 739 516 739Q614 739 689 711T804 640T868 544T900 450T907 373Q907 310 889 247T828 121T704 19T508 -20Q434 -20 368 1T233 75T123 235T82 498Q82 811 299 1040Q399 1144 527 1193T850 1253L858 1186Z" />
<glyph unicode="7" glyph-name="seven" horiz-adv-x="1003" d="M262 1217H895L903 1200Q862 1098 786 906T676 630T593 419T509 194T442 -4L250 -27L240 0Q260 45 458 472T721 1059H326Q271 1059 243 1034T193 909L113 926Q162 1139 166 1229H182Q199 1217 262 1217Z" />
<glyph unicode="8" glyph-name="eight" horiz-adv-x="1003" d="M506 1178Q361 1178 360 1006Q360 885 481 805L541 766Q650 846 649 983Q649 1178 506 1178ZM858 1001Q858 974 851 949T825 898T792 855T746 812T703 778T653 743L614 717L735 635Q813 582 861 500T909
330Q909 201 792 89T487 -23Q317 -23 206 62T94 299Q94 332 100 360T123 416T153 462T199 511T248 553T310 600T373 647L336 668Q141 793 141 967Q141 1092 237 1170T516 1249Q680 1249 769 1182T858 1001ZM492 57Q693 57 692 289Q692 365 658 425T535 541L442
598Q303 492 303 299Q303 174 358 116T492 57Z" />
<glyph unicode="9" glyph-name="nine" horiz-adv-x="1003" d="M681 655Q683 678 683 737Q683 862 663 952T608 1087T540 1151T470 1171Q408 1171 365 1098T321 872Q321 830 329 785T358 689T420 607T519 575Q603 575 681 655ZM138 43Q189 46 219 50T301 69T403
117T503 201Q621 322 663 532Q570 489 480 489Q382 489 307 518T192 589T128 684T96 779T89 856Q89 905 99 954T138 1058T209 1154T324 1222T488 1249Q545 1249 599 1238T712 1191T814 1101T886 951T914 731Q914 417 697 188Q597 84 469 35T146 -25L138 43Z" />
<glyph unicode=":" glyph-name="colon" horiz-adv-x="448" d="M152 684T152 731T185 812T266 846T347 812T381 731T347 651T266 618T186 651ZM152 145T152 192T185 273T266 307T347 274T381 193T347 113T266 80T186 112Z" />
<glyph unicode=";" glyph-name="semicolon" horiz-adv-x="448" d="M131 684T131 731T165 812T246 846T326 812T360 731T327 651T246 618T165 651ZM256 209Q385 209 385 -12Q385 -96 312 -179T127 -281Q96 -261 113 -217Q185 -199 235 -146T285 -55Q285 -6 215
2Q127 20 127 102Q127 147 163 178T256 209Z" />
<glyph unicode="&lt;" glyph-name="less" horiz-adv-x="1048" d="M313 492L965 254V127L86 446V537L965 856V729L313 492Z" />
<glyph unicode="=" glyph-name="equal" horiz-adv-x="1128" d="M1010 406V291H121V406H1010ZM1010 662V545H121V662H1010Z" />
<glyph unicode="&gt;" glyph-name="greater" horiz-adv-x="1048" d="M735 487L86 725V852L965 530V440L86 123V250L735 487Z" />
<glyph unicode="?" glyph-name="question" horiz-adv-x="880" d="M260 1169Q260 1149 269 1118T279 1059Q279 1022 248 999T170 975Q129 975 91 1007T53 1094Q53 1180 162 1270Q258 1350 442 1350Q616 1350 718 1264T821 1036Q821 966 780 900T701 800T590 713Q553
686 531 664T487 589T465 469V422Q465 385 452 369T393 352T336 367T324 422V473Q324 530 330 570T371 677T473 807Q586 907 586 1051Q586 1147 545 1211T422 1276Q354 1276 307 1244T260 1169ZM279 45T279 92T312 173T393 207T474 173T508 92T474 13T393 -20T313
12Z" />
<glyph unicode="@" glyph-name="at" horiz-adv-x="2023" d="M1241 655Q1241 708 1211 745T1141 782Q1049 782 975 702Q848 567 848 336Q848 148 963 147Q1016 147 1079 210T1182 395Q1241 592 1241 655ZM1311 154Q1311 125 1348 125Q1379 125 1427 152T1526 230T1613
369T1649 559Q1649 688 1608 797T1502 979T1353 1101T1189 1173T1032 1196Q911 1196 797 1148T588 1011T438 780T381 467Q381 373 403 277T479 85T609 -84T805 -203T1067 -248Q1311 -248 1497 -94L1540 -154Q1425 -242 1314 -285T1028 -328Q661 -328 425 -112T188
453Q188 666 293 852T600 1155T1051 1272Q1393 1272 1608 1078T1823 588Q1823 373 1667 206T1307 39Q1211 39 1169 76T1126 156Q1024 62 909 61Q825 61 769 89T690 163T658 246T649 324Q649 539 799 694T1135 850Q1264 850 1327 772L1403 840L1458 817L1337 289Q1311
174 1311 154Z" />
<glyph unicode="A" glyph-name="A" horiz-adv-x="1431" d="M518 590H825L655 1053L479 614Q479 600 485 595T518 590ZM303 162Q278 117 296 93T399 68Q442 68 442 47V6L432 -2Q244 2 195 2L20 -2L4 4V47Q4 67 45 68Q80 68 119 98T182 186L639 1284Q666 1347 725
1348Q793 1348 817 1284L1231 186Q1254 125 1278 97T1339 68H1397Q1420 68 1423 65T1427 47V6L1417 -2Q1220 2 1143 2L848 -2L831 8V47Q831 67 885 68H940Q991 68 991 121Q991 144 987 150L860 494H483Q450 494 439 489T420 465L303 162Z" />
<glyph unicode="B" glyph-name="B" horiz-adv-x="1269" d="M453 1151V770H567Q684 770 754 827T825 1001Q825 1073 804 1123T746 1197T673 1230T596 1239Q504 1239 479 1220T453 1151ZM453 684V172Q453 123 477 103T588 82Q684 82 753 110T857 187T906 284T922
383Q922 518 837 601T598 684H453ZM45 43Q45 68 82 68H141Q176 68 189 85T203 152V1171Q203 1218 191 1236T141 1255H74Q45 1255 45 1276V1321L49 1325Q255 1321 317 1321Q343 1321 434 1323T582 1325Q1071 1325 1071 1006Q1071 928 1015 852T874 739V735Q1181
653 1182 360Q1182 206 1050 103T627 0H47L45 2V43Z" />
<glyph unicode="C" glyph-name="C" horiz-adv-x="1363" d="M760 -20Q592 -20 457 37T239 189T113 401T70 645Q70 944 272 1146T762 1348Q881 1348 969 1326T1113 1280T1208 1257Q1218 1099 1253 911L1176 895Q1119 1071 1030 1167T762 1264Q594 1264 465 1116T336
684Q336 442 447 256T758 70Q1016 70 1231 313L1292 264Q1077 -20 760 -20Z" />
<glyph unicode="D" glyph-name="D" horiz-adv-x="1470" d="M453 154Q453 109 483 96T631 82Q737 82 820 104T975 180T1085 334T1124 582Q1124 678 1107 769T1049 947T947 1098T791 1202T580 1241Q514 1241 484 1228T453 1169V154ZM49 0L45 4V49Q45 67 61 68H90Q151
68 177 88T203 158V1165Q203 1214 178 1234T90 1255H61Q45 1255 45 1272V1319L49 1323H655Q964 1323 1179 1122T1395 633Q1395 488 1351 374T1236 192T1070 78T883 17T692 0H49Z" />
<glyph unicode="E" glyph-name="E" horiz-adv-x="1150" d="M55 0L49 4V49Q49 67 66 68H94Q155 68 181 88T207 158V1165Q207 1214 182 1234T94 1255H66Q50 1255 49 1272V1319L55 1323H1010Q1022 1149 1053 991L971 973Q901 1229 754 1229H487Q458 1229 459 1169V748H690Q708
748 720 757T741 791T753 834T762 893Q762 901 771 908T795 915H838L850 895Q836 780 836 705Q836 635 850 514L838 496H795Q762 496 762 516Q756 557 753 575T742 618T721 652T690 662H459V154Q459 95 487 94H801Q881 94 937 170T1022 367L1110 346Q1077 170 1055
0H55Z" />
<glyph unicode="F" glyph-name="F" horiz-adv-x="1050" d="M457 156Q457 66 569 66H598Q614 66 614 47V0L610 -4Q405 0 332 0Q332 0 53 -4L49 0V47Q49 65 66 66H94Q155 66 181 86T207 156V1165Q207 1214 182 1234T94 1255H66Q50 1255 49 1272V1319L55 1323H1008Q1020
1149 1051 991L969 973Q899 1229 752 1229H485Q456 1229 457 1169V748H688Q706 748 718 757T739 791T751 834T760 893Q760 901 769 908T793 915H836L848 895Q834 780 834 705Q834 635 848 514L836 496H793Q760 496 760 516Q754 557 751 575T740 618T719 652T688
662H457V156Z" />
<glyph unicode="G" glyph-name="G" horiz-adv-x="1488" d="M1329 469V233Q1329 196 1354 174Q1239 78 1107 29T791 -20Q469 -20 264 169T59 631Q59 848 165 1015T435 1265T784 1348Q905 1348 994 1326T1138 1280T1233 1257Q1239 1120 1278 911L1198 895Q1147 1065
1054 1164T782 1264Q592 1264 459 1096T326 670Q326 422 459 246T827 70Q989 70 1090 152V469Q1090 557 942 557H913Q897 557 897 575V623L901 627Q1100 623 1180 623L1446 627L1450 623V575Q1450 557 1434 557H1421Q1364 557 1347 537T1329 469Z" />
<glyph unicode="H" glyph-name="H" horiz-adv-x="1480" d="M1028 1165Q1028 1214 1003 1234T915 1255H887Q871 1255 870 1272V1321L874 1325Q1073 1321 1153 1321L1434 1325L1438 1321V1272Q1438 1256 1421 1255H1393Q1280 1255 1280 1165V156Q1280 66 1393 66H1421Q1437
66 1438 47V0L1434 -4Q1227 0 1153 0Q1153 0 874 -4L870 0V47Q870 65 887 66H915Q976 66 1002 86T1028 156V657H455V156Q455 66 567 66H596Q612 66 612 47V0L608 -4Q401 0 328 0L49 -4L45 0V47Q45 65 61 66H90Q151 66 177 86T203 156V1165Q203 1214 178 1234T90
1255H61Q45 1255 45 1272V1321L49 1325Q248 1321 328 1321L608 1325L612 1321V1272Q612 1256 596 1255H567Q454 1255 455 1165V752H1028V1165Z" />
<glyph unicode="I" glyph-name="I" horiz-adv-x="653" d="M453 156Q453 66 565 66H594Q610 66 610 47V0L606 -4Q401 0 328 0Q328 0 49 -4L45 0V47Q45 65 61 66H90Q151 66 177 86T203 156V1165Q203 1214 178 1234T90 1255H61Q45 1255 45 1272V1321L49 1325Q248
1321 328 1321L606 1325L610 1321V1272Q610 1256 594 1255H565Q452 1255 453 1165V156Z" />
<glyph unicode="J" glyph-name="J" horiz-adv-x="778" d="M143 -250Q174 -250 196 -236T243 -181T281 -53T295 166V1135Q295 1207 264 1228T150 1253L109 1255Q91 1255 90 1272V1321L94 1325Q287 1321 377 1321Q510 1321 702 1325L707 1321V1272Q707 1256 690
1255L655 1253Q594 1251 570 1231T545 1165V211Q545 -121 340 -283Q234 -373 55 -373Q-41 -373 -105 -342T-170 -244Q-170 -203 -134 -174T-66 -145Q22 -145 76 -219Q100 -250 143 -250Z" />
<glyph unicode="K" glyph-name="K" horiz-adv-x="1351" d="M453 156Q453 66 565 66H594Q610 66 610 47V0L606 -4Q401 0 328 0Q328 0 49 -4L45 0V47Q45 65 61 66H90Q151 66 177 86T203 156V1165Q203 1214 178 1234T90 1255H61Q45 1255 45 1272V1321L49 1325Q248
1321 328 1321L604 1325L608 1321V1272Q608 1256 594 1255H563Q452 1255 453 1165V754L879 1153Q891 1165 902 1180T919 1212T917 1240T881 1251Q799 1251 799 1276V1319L807 1325Q1002 1321 1081 1321L1321 1325L1331 1319V1276Q1331 1256 1270 1251Q1161 1233
1036 1114L719 827Q653 766 643 739T664 678L1153 158Q1237 70 1278 70H1315Q1335 70 1341 65T1348 45V0L1341 -4Q1153 0 1075 0L913 -4L905 4V57Q905 116 874 147L453 602V156Z" />
<glyph unicode="L" glyph-name="L" horiz-adv-x="1101" d="M205 1165Q205 1214 179 1234T92 1255H63Q45 1255 45 1272V1321L49 1325Q250 1321 330 1321L606 1325L610 1321V1272Q610 1256 596 1255H565Q454 1255 455 1165V188Q455 94 524 94H700Q897 94 969 371L1049
354Q1004 137 999 0H297Q297 0 53 -4L45 0V41Q45 66 78 66H143Q180 66 192 83T205 147V1165Z" />
<glyph unicode="M" glyph-name="M" horiz-adv-x="1746" d="M1456 1165L1544 156Q1548 109 1572 88T1657 66H1686Q1702 66 1702 47V0L1698 -4Q1495 0 1423 0L1174 -4L1169 0V47Q1169 65 1186 66H1214Q1275 66 1298 86T1317 156L1253 913L887 14Q869 -25 827 -25Q780
-25 766 14Q537 569 387 920L344 156Q340 107 363 87T451 66H479Q495 66 496 47V0L492 -4Q342 0 270 0L53 -4L49 0V47Q49 65 66 66H86Q209 66 215 156L272 1165Q274 1216 257 1235T180 1255H152Q134 1255 133 1272V1321L137 1323H483L903 324Q969 488 1100 827T1292
1323H1610L1614 1321V1272Q1614 1256 1597 1255H1569Q1448 1255 1456 1165Z" />
<glyph unicode="N" glyph-name="N" horiz-adv-x="1454" d="M1118 1165Q1118 1214 1093 1234T1008 1255H979Q961 1255 961 1272V1321L965 1323Q1104 1321 1184 1321L1403 1323L1407 1321V1272Q1407 1256 1391 1255H1362Q1249 1255 1249 1165V51Q1249 -25 1171 -25Q1118
-25 1075 31L358 963V156Q358 66 471 66H500Q516 66 516 47V0L512 -4Q362 0 291 0Q291 0 59 -4L55 0V47Q55 65 72 66H100Q229 66 229 156V1147Q204 1182 189 1200T146 1237T86 1255Q45 1255 45 1278V1317L51 1323H348L1118 344V1165Z" />
<glyph unicode="O" glyph-name="O" horiz-adv-x="1495" d="M719 1264Q572 1264 458 1114T344 672Q344 391 471 227T786 63Q946 63 1048 218T1151 635Q1151 934 1027 1099T719 1264ZM1421 674Q1421 365 1237 173T745 -20Q458 -20 267 160T76 637Q76 940 265 1144T743
1348Q1024 1348 1222 1160T1421 674Z" />
<glyph unicode="P" glyph-name="P" horiz-adv-x="1126" d="M453 1143V659Q496 653 555 653Q831 653 831 956Q831 1255 575 1255Q499 1255 476 1229T453 1143ZM203 182V1147Q203 1247 133 1251L68 1255Q45 1255 45 1272V1321L49 1325Q104 1325 304 1332T592 1339Q737
1339 841 1305T997 1214T1070 1103T1092 991Q1092 819 967 695T565 571Q495 571 453 578V182Q453 127 482 102T575 70L614 66Q630 64 631 47V0L627 -4Q475 0 328 0Q201 0 49 -4L45 0V47Q45 63 61 66L90 70Q153 78 178 101T203 182Z" />
<glyph unicode="Q" glyph-name="Q" horiz-adv-x="1495" d="M719 1264Q572 1264 458 1114T344 672Q344 391 471 227T786 63Q946 63 1048 218T1151 635Q1151 934 1027 1099T719 1264ZM321 -266Q451 -109 637 -13Q390 21 233 195T76 637Q76 940 265 1144T743 1348Q1024
1348 1222 1160T1421 674Q1421 384 1258 195T819 -17Q708 -56 590 -144Q599 -143 610 -143Q729 -143 913 -227T1182 -311Q1299 -311 1360 -236L1395 -281Q1278 -449 1100 -449Q1010 -449 923 -418T779 -351T650 -285T514 -254Q479 -254 439 -282Q400 -326 365 -375L285
-313Q299 -289 321 -266Z" />
<glyph unicode="R" glyph-name="R" horiz-adv-x="1247" d="M844 958Q844 1103 781 1179T618 1255Q530 1255 453 1239V659H553Q703 659 773 731T844 958ZM1090 987Q1090 840 1032 753T856 602L1067 201Q1135 66 1257 82L1266 10Q1194 -13 1098 -12Q928 -12 831
162L647 506Q627 543 583 554T453 565V158Q453 111 478 90T565 68H594Q610 68 610 49V2L606 -2Q454 2 375 2L49 -2L45 2V49Q45 67 61 68H90Q203 68 203 158V1145Q203 1192 191 1214T141 1237H127L66 1231Q50 1231 49 1245V1315Q84 1323 260 1331T608 1339Q811 1339
950 1251T1090 987Z" />
<glyph unicode="S" glyph-name="S" horiz-adv-x="972" d="M782 1292Q792 1161 825 981L743 971Q708 1100 645 1184T465 1268Q369 1268 325 1211T281 1059Q281 971 362 898T528 795Q903 662 903 377Q903 180 791 80T494 -20Q375 -20 292 -5T203 10Q183 10 154 5T109
0Q105 90 70 358L152 365Q183 228 264 146T451 63Q684 63 684 297Q684 389 637 460T498 569Q86 729 86 993Q86 1163 201 1255T467 1348Q580 1348 669 1322T782 1292Z" />
<glyph unicode="T" glyph-name="T" horiz-adv-x="1222" d="M178 1321H1044Q1089 1321 1090 1370L1163 1378Q1175 1216 1208 1063L1126 1053Q1097 1172 1066 1199T946 1227H836Q781 1227 759 1209T737 1141V156Q737 109 762 88T850 66H903Q919 66 920 47V0L915
-4Q671 0 592 0L309 -4L305 0V47Q305 65 322 66H375Q488 66 487 156V1147Q487 1192 466 1209T387 1227H279Q191 1227 158 1199T96 1053L16 1063Q49 1217 61 1378L135 1370Q135 1321 178 1321Z" />
<glyph unicode="U" glyph-name="U" horiz-adv-x="1388" d="M1067 1165Q1067 1214 1041 1234T954 1255H926Q908 1255 907 1272V1321L911 1323Q1061 1321 1141 1321L1370 1323L1374 1321V1272Q1374 1256 1358 1255H1329Q1216 1255 1217 1165V604Q1217 485 1206 398T1159
228T1067 93T914 11T684 -20Q602 -20 519 5T355 85T223 243T172 485V1165Q172 1214 147 1234T61 1255H33Q15 1255 14 1272V1321L18 1323Q217 1321 299 1321L575 1323L580 1321V1272Q580 1256 563 1255H535Q424 1255 424 1165V553Q424 461 427 409T452 283T518 164Q622
64 727 63Q813 63 877 96T977 177T1033 297T1061 431T1067 569V1165Z" />
<glyph unicode="V" glyph-name="V" horiz-adv-x="1302" d="M874 1255Q858 1255 858 1272V1321L862 1323Q1040 1321 1120 1321Q1120 1321 1300 1323L1305 1321V1272Q1305 1256 1288 1255Q1206 1255 1179 1233T1118 1124L707 23Q699 3 677 -11T637 -25Q586 -25 569
23L180 1135Q153 1209 123 1232T16 1255Q0 1255 0 1272V1321L4 1323Q203 1321 283 1321L578 1323L582 1321V1272Q582 1256 565 1255Q467 1255 435 1237T420 1171L676 442L698 379L723 436L989 1151Q1016 1217 994 1236T874 1255Z" />
<glyph unicode="W" glyph-name="W" horiz-adv-x="2043" d="M639 -25Q555 -25 520 72L164 1151Q127 1255 51 1255H25Q0 1255 0 1272V1319L4 1323Q154 1321 231 1321Q231 1321 520 1323L526 1319V1274Q526 1256 508 1255Q442 1255 421 1240T418 1171L657 446L705
299L752 442L903 905Q917 948 918 983Q918 1016 907 1040L864 1171Q839 1255 731 1255H725Q700 1255 700 1272V1319L705 1323Q820 1321 901 1321L1249 1323L1253 1319V1270Q1253 1256 1237 1255Q1210 1255 1195 1254T1159 1247T1132 1228T1121 1192T1133 1135L1366
424L1409 285L1462 440L1704 1165Q1722 1218 1693 1236T1585 1255Q1569 1255 1569 1270V1319L1575 1323Q1741 1321 1827 1321L1999 1323L2003 1321V1272Q2003 1256 1978 1255H1956Q1897 1255 1872 1234T1825 1147L1475 90Q1438 -25 1358 -25Q1299 -25 1270 0T1225
80L1001 752Q993 779 989 779T981 758L754 68Q725 -25 639 -25Z" />
<glyph unicode="X" glyph-name="X" horiz-adv-x="1449" d="M49 1270V1321L59 1323Q90 1323 174 1322T266 1321Q268 1321 338 1322T487 1323T596 1323Q602 1321 604 1321V1270Q604 1256 594 1255Q516 1255 501 1237T518 1171L737 848Q757 821 765 820T795 844Q979
1069 1036 1171Q1081 1255 961 1255Q947 1255 946 1270V1321L950 1323Q975 1323 1081 1322T1196 1321Q1198 1321 1286 1322T1397 1323L1401 1321V1270Q1401 1256 1382 1255Q1263 1255 1157 1130L862 784Q835 751 839 731T897 639L1210 209Q1312 66 1427 66Q1441
66 1442 49V0L1440 -4Q1325 0 1223 0L883 -4L877 0V51Q877 65 889 66Q979 66 988 81T956 150L707 504Q674 551 662 555T629 528Q496 356 375 158Q320 66 446 66Q458 66 459 49V0L453 -4Q213 0 184 0L12 -4L10 0V51Q10 65 33 66Q90 66 136 89T203 136T268 213L567
596Q594 627 592 644T559 705L264 1124Q172 1255 72 1255Q49 1256 49 1270Z" />
<glyph unicode="Y" glyph-name="Y" horiz-adv-x="1263" d="M520 147V575L199 1133Q150 1215 121 1235T47 1255H23Q0 1255 0 1270V1321L4 1325Q237 1321 264 1321L498 1325L502 1321V1272Q502 1256 487 1255Q405 1255 390 1243T403 1180L688 684L950 1180Q966 1211
942 1233T862 1255Q850 1255 850 1270V1321L854 1325Q1016 1321 1040 1321L1260 1325L1264 1321V1272Q1264 1256 1243 1255H1200Q1153 1255 1127 1239T1075 1176L770 600V147Q770 100 795 84T883 68H938Q954 68 954 49V2L950 -2Q727 2 647 2L342 -2L340 2V49Q340
67 354 68H410Q471 68 495 86T520 147Z" />
<glyph unicode="Z" glyph-name="Z" horiz-adv-x="1277" d="M1171 0H80Q41 0 41 31Q41 56 57 78L854 1186Q887 1233 850 1233H410Q355 1233 316 1218T250 1165T209 1094T174 995L94 1006Q127 1170 139 1348Q170 1346 211 1334T305 1321H1036Q1142 1331 1165 1331Q1210
1331 1210 1311Q1210 1280 1161 1210L395 147Q372 118 377 104T428 90H885Q994 90 1050 156T1141 348L1225 338Q1181 131 1171 0Z" />
<glyph unicode="[" glyph-name="bracketleft" horiz-adv-x="768" d="M702 1411V1307H406V-301H702V-406H180V1411H702Z" />
<glyph unicode="\" glyph-name="backslash" horiz-adv-x="628" d="M156 1430L627 -98H494L23 1430H156Z" />
<glyph unicode="]" glyph-name="bracketright" horiz-adv-x="768" d="M-18 -410V-305H279V1303H-18V1407H504V-410H-18Z" />
<glyph unicode="^" glyph-name="asciicircum" horiz-adv-x="1060" d="M530 1165L346 709H229L489 1331H575L834 709H717L530 1165Z" />
<glyph unicode="_" glyph-name="underscore" horiz-adv-x="995" d="M987 -211V-315H10V-211H987Z" />
<glyph unicode="`" glyph-name="grave" horiz-adv-x="802" d="M406 1438L547 1184Q565 1151 565 1130Q565 1116 555 1107T530 1098Q505 1098 459 1139L211 1354L215 1376Q233 1396 274 1419T365 1442Q390 1442 406 1438Z" />
<glyph unicode="a" glyph-name="a" horiz-adv-x="974" d="M575 98Q438 -21 319 -20Q188 -20 131 33T74 195Q74 308 162 369T430 483L578 526Q578 708 542 769T434 831Q373 831 331 812T289 760Q289 737 295 710T301 672Q301 647 269 621T195 594Q99 594 98 680Q98
768 220 838T463 909Q613 909 706 833T799 555V258Q799 213 801 190T810 139T834 99T880 86T925 102T944 119Q950 119 960 104T971 78Q971 70 949 48T879 3T780 -20Q690 -20 644 8T580 98H575ZM578 174V449L461 414Q361 383 325 339T289 225Q289 92 418 92Q476
92 578 174Z" />
<glyph unicode="b" glyph-name="b" horiz-adv-x="1034" d="M377 115Q422 64 479 63Q598 63 660 168T723 451Q723 601 667 703T535 805Q476 805 377 741V115ZM152 1153Q152 1247 139 1275T90 1303L25 1307Q13 1307 12 1317L6 1376Q82 1382 198 1398T350 1430Q383
1430 383 1409Q377 1327 377 1194V823Q496 909 586 909Q742 909 850 796T958 498Q958 265 815 123T489 -20Q362 -20 274 82L213 -27L143 -14Q151 52 152 152V1153Z" />
<glyph unicode="c" glyph-name="c" horiz-adv-x="890" d="M831 178Q733 -21 510 -20Q297 -20 187 93T76 412Q76 627 205 768T518 909Q676 909 759 848T842 696Q842 647 814 615T739 582Q690 582 659 608T623 678Q609 823 510 823Q426 823 368 726T309 463Q309
301 384 193T563 84Q672 84 791 217L831 178Z" />
<glyph unicode="d" glyph-name="d" horiz-adv-x="1079" d="M684 702Q604 823 522 823T376 738T311 455Q311 271 370 177T524 82Q587 82 684 172V702ZM909 1194V236Q909 185 937 157T1040 121L1044 57Q878 39 754 -25H684L688 72Q629 21 583 1T473 -20Q307 -20
192 105T76 420Q76 647 215 786Q348 909 551 909Q578 909 621 894T684 858V1153Q684 1247 671 1275T623 1303L557 1307Q545 1307 545 1317L539 1376Q615 1382 731 1398T883 1430Q916 1430 915 1409Q909 1327 909 1194Z" />
<glyph unicode="e" glyph-name="e" horiz-adv-x="944" d="M315 584H643Q647 588 647 606Q647 717 603 770T508 823Q488 823 463 814T408 783T351 709T315 584ZM813 223L864 180Q766 -21 504 -20Q285 -20 178 100T70 406Q70 629 204 769T510 909Q715 909 799 805T883
545Q883 502 803 502H305V449Q305 297 385 196T584 94Q707 94 813 223Z" />
<glyph unicode="f" glyph-name="f" horiz-adv-x="688" d="M203 154V793H109Q54 793 53 813V842Q53 858 74 873T143 889H203V909Q203 1151 316 1290T586 1430Q662 1430 721 1412T810 1366T855 1317T870 1278Q870 1237 845 1207T776 1176Q698 1176 651 1257Q606
1343 547 1343Q428 1343 428 993V889H625Q666 889 666 868V827Q666 792 594 793H428V160Q428 82 539 70L575 66Q591 62 592 47V0L588 -4Q391 0 311 0L63 -4L59 0V47Q59 61 76 66L104 70Q157 78 180 95T203 154Z" />
<glyph unicode="g" glyph-name="g" horiz-adv-x="1040" d="M639 582Q639 701 595 769T477 838Q414 838 375 782T336 616Q336 518 377 435T504 352Q639 353 639 582ZM375 -31Q328 -31 307 -23Q262 -70 262 -197Q262 -293 337 -347T473 -401Q602 -401 712 -337T823
-166Q823 -25 524 -25Q514 -25 461 -29Q430 -31 375 -31ZM915 784Q858 784 840 844Q828 869 809 868Q778 868 750 831Q861 741 860 588Q860 445 753 361T494 276Q388 276 323 307Q310 275 309 207Q309 152 338 126T401 100Q403 100 475 107T594 115Q815 115 912
41T1010 -113Q1010 -222 920 -308T695 -441T416 -487Q273 -487 172 -426T70 -238T236 2Q138 61 138 151T244 341Q188 380 154 451T119 598Q119 735 230 822T496 909Q619 909 688 870Q731 909 791 932T895 956Q948 956 977 929T1006 866Q1006 829 982 807T915 784Z"
/>
<glyph unicode="h" glyph-name="h" horiz-adv-x="1126" d="M958 158Q958 117 982 99T1059 70L1081 66Q1097 64 1098 47V0L1094 -4Q922 0 842 0L608 -4L604 0V47Q604 63 621 66L635 70Q672 80 689 88T720 113T733 158V604Q733 723 713 761T631 799Q598 799 532
772T399 698V158Q399 119 420 103T500 70L514 66Q530 64 530 47V0L526 -4Q362 0 283 0L39 -4L35 0V47Q35 63 51 66L76 70Q127 78 150 97T174 158V1153Q174 1247 161 1275T113 1303L47 1307Q35 1307 35 1317L29 1376Q105 1382 221 1398T373 1430Q406 1430 406 1409Q400
1327 399 1194V780Q481 841 569 876T717 911Q846 911 902 830T958 582V158Z" />
<glyph unicode="i" glyph-name="i" horiz-adv-x="585" d="M432 658V158Q432 117 455 99T528 70L549 66Q565 62 565 47V0L561 -4Q395 0 315 0L76 -4L72 0V47Q72 63 86 66L111 70Q162 78 184 97T207 158V657Q207 729 196 755T162 784L78 793L74 854Q348 891 424
915Q438 915 438 909Q432 760 432 658ZM195 1118T195 1169T230 1256T317 1292T404 1257T440 1170T405 1083T318 1047T231 1082Z" />
<glyph unicode="j" glyph-name="j" horiz-adv-x="591" d="M444 658V143Q444 5 428 -98T372 -288T259 -420T78 -466Q0 -466 -64 -426T-129 -324Q-129 -285 -107 -267T-52 -248Q-8 -248 20 -268T58 -314T82 -359T115 -380Q143 -380 163 -360T195 -300T213 -219T221
-118T223 -17T221 83T219 164V657Q219 729 209 751T174 776L70 784L66 854Q373 897 434 915Q448 915 449 907Q444 760 444 658ZM176 1118T176 1169T213 1258T303 1296T393 1259T430 1170T393 1080T303 1042T213 1080Z" />
<glyph unicode="k" glyph-name="k" horiz-adv-x="1071" d="M170 158V1153Q170 1247 157 1275T109 1303L43 1307Q31 1307 31 1317L25 1376Q101 1382 217 1398T369 1430Q402 1430 401 1409Q395 1327 395 1194V510Q452 518 510 568Q560 612 641 715Q672 762 660 789T618
819L575 823Q548 825 549 844V889L559 893Q696 889 768 889L1004 893L1010 889V844Q1010 832 1007 828T989 823L928 819Q901 817 853 788T766 719L612 551Q600 537 618 510L856 160Q909 78 971 72L1030 66Q1046 64 1047 53V0L1040 -4Q897 0 817 0L645 -4L641 0V53Q641
90 608 160Q573 234 469 389Q444 424 395 428V158Q395 119 416 103T496 70L510 66Q526 64 526 47V0L522 -4Q358 0 279 0L35 -4L31 0V47Q31 63 47 66L72 70Q123 78 146 97T170 158Z" />
<glyph unicode="l" glyph-name="l" horiz-adv-x="591" d="M195 1153Q195 1247 182 1275T133 1303L68 1307Q56 1307 55 1317L49 1376Q125 1382 241 1398T393 1430Q426 1430 426 1409Q420 1327 420 1194V158Q420 117 443 99T520 70L543 66Q559 64 559 47V0L555 -4Q383
0 303 0L59 -4L55 0V47Q55 63 72 66L96 70Q147 78 171 97T195 158V1153Z" />
<glyph unicode="m" glyph-name="m" horiz-adv-x="1640" d="M420 780H424Q569 909 711 909Q871 909 922 774Q1078 909 1237 909Q1315 909 1364 885T1435 809T1465 707T1473 575V156Q1473 117 1495 101T1573 70L1589 66Q1605 62 1606 47V0L1602 -4Q1436 0 1356 0L1137
-4L1133 0V47Q1133 63 1149 66Q1247 74 1247 156V621Q1247 797 1165 797Q1061 797 942 696Q946 643 946 578V156Q946 107 972 90T1047 66Q1063 66 1063 47V0L1059 -4Q912 0 831 0L610 -4L606 0V47Q606 62 625 66Q721 74 721 156V616Q721 796 637 797Q543 797 424
698V154Q424 121 440 101T474 75T522 66Q540 62 541 47V0L537 -4Q390 0 307 0L70 -4L66 0V47Q66 61 82 66L100 70Q155 82 177 97T199 154V657Q199 729 189 751T154 776L70 784L66 854Q316 887 410 915Q424 915 424 909L420 780Z" />
<glyph unicode="n" glyph-name="n" horiz-adv-x="1153" d="M426 780Q594 909 735 909Q887 909 936 825T985 580V156Q985 117 1007 101T1085 70L1102 66Q1118 62 1118 47V0L1114 -4Q950 0 870 0L641 -4L637 0V47Q637 61 653 66L662 68Q715 82 737 98T760 156V594Q760
705 744 750T674 795Q580 795 426 698V156Q426 117 449 99T524 68L532 66Q548 62 549 47V0L545 -4Q389 0 309 0L72 -4L68 0V47Q68 61 84 66L102 70Q157 82 179 98T201 156V657Q201 729 191 751T156 776L72 784L68 854Q318 887 412 915Q426 915 426 909L422 780H426Z"
/>
<glyph unicode="o" glyph-name="o" horiz-adv-x="1062" d="M512 825Q420 825 370 719T319 469Q319 385 344 297T427 139T563 68Q635 68 690 135T745 377Q745 592 682 708T512 825ZM70 424Q70 641 192 775T532 909Q651 909 744 867T890 756T967 606T993 442Q993
362 965 283T882 135T736 23T530 -20Q317 -20 194 116T70 424Z" />
<glyph unicode="p" glyph-name="p" horiz-adv-x="1071" d="M399 698V133Q462 65 524 66Q647 66 705 173T764 430Q764 803 582 803Q493 802 399 698ZM399 780Q512 909 647 909Q807 909 903 783T999 485Q999 254 842 96Q725 -21 537 -20Q467 -20 399 14V-315Q399
-356 421 -374T498 -406L514 -410Q530 -414 530 -426V-475L528 -479Q362 -475 283 -475L45 -479L41 -475V-426Q41 -414 57 -410L76 -406Q129 -394 151 -375T174 -315V657Q174 729 164 751T129 776L45 784L41 854Q291 887 385 915Q399 915 399 909L395 780H399Z"
/>
<glyph unicode="q" glyph-name="q" horiz-adv-x="1060" d="M686 715Q616 824 522 823Q424 823 365 724T305 469Q305 266 388 175T569 84Q616 84 686 125V715ZM686 -317V16Q608 -21 500 -20Q387 -20 300 21T166 132T97 275T74 426Q74 633 201 771T528 909Q651 909
756 821Q836 915 895 915Q915 915 915 893Q911 727 911 657V-317Q911 -344 924 -362T956 -389T1012 -406L1028 -410Q1044 -414 1044 -428V-475L1040 -479Q876 -475 797 -475L557 -479L553 -475V-428Q553 -414 569 -410L590 -406Q643 -396 664 -377T686 -317Z" />
<glyph unicode="r" glyph-name="r" horiz-adv-x="821" d="M424 780Q549 909 686 909Q739 909 772 874T805 795Q805 746 777 712T702 678Q667 678 638 698T588 739T552 760Q515 760 477 733Q424 696 424 590V158Q424 131 436 114T468 87T522 70L539 66Q555 62 555
47V0L551 -4Q387 0 307 0L70 -4L66 0V47Q66 63 80 66L100 70Q151 80 175 99T199 158V657Q199 729 189 751T154 776L70 784L66 854Q316 887 410 915Q424 915 424 909L420 780H424Z" />
<glyph unicode="s" glyph-name="s" horiz-adv-x="821" d="M76 299L158 303Q187 166 237 113T399 59Q446 59 483 93T520 193Q520 256 494 290T385 352Q283 389 193 469T102 657Q102 763 192 836T422 909Q567 909 684 852Q698 750 707 643L627 633Q598 737 549 780T428
823Q381 823 347 794T313 707Q313 598 426 557Q576 502 662 428T748 244Q748 111 640 46T393 -20Q346 -20 251 -7T100 4Q101 117 76 299Z" />
<glyph unicode="t" glyph-name="t" horiz-adv-x="677" d="M408 793V276Q408 126 461 127Q537 127 600 178L647 131Q532 -21 358 -20Q182 -20 182 188V793H78Q41 793 41 809V872Q41 888 119 889Q191 889 216 953T242 1155L408 1219V889H602Q647 889 647 868V827Q647
792 571 793H408Z" />
<glyph unicode="u" glyph-name="u" horiz-adv-x="1126" d="M946 236Q946 183 973 154T1077 121L1079 57Q889 32 791 -25H721L727 72Q582 -20 463 -20Q301 -20 240 57T178 262V721Q178 770 166 793T119 819L55 823L49 827V889L59 893Q221 889 287 889L406 893Q404
801 403 725V291Q403 176 437 129T514 82Q633 82 721 158V721Q721 819 664 819L600 823L592 827V889L600 893Q772 889 827 889L950 893Q946 807 946 725V236Z" />
<glyph unicode="v" glyph-name="v" horiz-adv-x="1079" d="M887 721L645 84Q620 21 599 -2T543 -25Q500 -25 473 -1T422 82L187 684Q175 714 166 732T139 773T97 808T39 823Q19 825 18 838V889L25 893Q150 889 231 889L483 893L492 889V840Q492 826 475 823L440
819Q395 813 388 795T399 731L602 215L786 733Q800 772 780 788T698 821L690 823Q674 827 674 838V887L682 893Q811 889 893 889L1051 893L1055 889V842Q1055 826 1032 823Q922 811 887 721Z" />
<glyph unicode="w" glyph-name="w" horiz-adv-x="1593" d="M399 731L592 205L737 567L674 727Q654 778 626 797T549 823Q529 825 528 838V889L535 893Q662 889 743 889L993 893L1001 889V840Q1001 826 983 823L948 819Q903 813 895 795T905 731L1096 203L1286
727Q1300 776 1288 789T1202 821L1194 823Q1178 827 1178 838V887L1186 893Q1325 889 1415 889L1554 893L1559 889V842Q1559 826 1536 823Q1474 815 1443 787T1389 701L1133 68Q1098 -24 1038 -25Q970 -25 932 66L782 449L631 72Q619 41 609 24T580 -9T537 -25Q494
-25 470 -4T428 66L186 685Q159 753 131 784T39 823Q16 825 16 838V889L23 893Q156 889 240 889Q265 889 295 889T353 890T405 892T444 893H459L467 889V840Q467 826 444 823Q399 817 391 795T399 731Z" />
<glyph unicode="x" glyph-name="x" horiz-adv-x="1067" d="M375 150Q359 125 355 109T360 84T381 73T410 66Q426 64 426 49V0L418 -4Q281 0 195 0Q134 0 35 -4L31 0V45Q31 63 53 66Q170 82 238 162L426 395Q442 413 432 426L250 686Q154 823 63 823Q43 823 43
838V889L49 893Q176 889 256 889Q356 889 512 893L518 889V840Q518 826 502 823Q441 817 433 803T457 737L555 594Q567 578 572 577T586 588L688 735Q721 780 715 799T653 823Q639 825 639 838V887L645 893Q790 889 885 889L1024 893L1028 889V842Q1028 826 1006
823Q891 811 821 723L639 502Q631 490 643 471L823 203Q870 131 912 103T1014 66Q1034 64 1034 51V0L1028 -4Q901 0 821 0L571 -4L563 0V49Q563 63 580 66Q635 74 644 87T627 147L541 279Q523 310 515 317T496 316T461 272L375 150Z" />
<glyph unicode="y" glyph-name="y" horiz-adv-x="1091" d="M885 698L545 -145Q515 -218 487 -270T421 -373T332 -450T223 -476Q175 -476 122 -448T68 -364Q68 -315 104 -287T188 -259Q211 -259 237 -274T274 -307Q297 -342 313 -342Q322 -342 339 -322T385 -250T440
-125L477 -25L188 688Q155 768 128 795T41 823Q21 823 20 838V889L27 893Q160 889 244 889Q340 889 492 893L500 889V840Q500 824 483 823Q424 823 407 801T408 731L598 215Q719 512 786 727Q819 823 705 823Q689 823 688 838V887L696 893Q835 889 926 889L1057
893L1061 889V842Q1061 824 1038 823Q936 823 885 698Z" />
<glyph unicode="z" glyph-name="z" horiz-adv-x="884" d="M201 913Q209 888 236 889H653Q676 889 700 891T740 894T758 895Q832 895 831 862Q831 852 791 788L334 86H571Q698 86 756 303L842 285Q803 144 788 0H178Q65 0 66 33Q66 41 88 78Q172 205 328 447T559
803H322Q222 803 176 606L88 618Q127 778 133 913H201Z" />
<glyph unicode="{" glyph-name="braceleft" horiz-adv-x="626" d="M420 1155V788Q420 659 394 602T287 508Q377 465 398 404T420 201V-133Q420 -264 449 -315Q492 -391 551 -403V-440Q332 -434 279 -362Q216 -276 215 -102V252Q215 356 187 419T80 502V512Q215
551 215 758V1141Q215 1298 283 1380Q342 1452 551 1458V1419Q485 1403 446 1331Q420 1284 420 1155Z" />
<glyph unicode="|" glyph-name="bar" horiz-adv-x="450" d="M287 -477H164V1430H287V-477Z" />
<glyph unicode="}" glyph-name="braceright" horiz-adv-x="626" d="M207 -139V227Q207 356 233 413T340 508Q250 551 229 612T207 815V1149Q207 1280 178 1331Q135 1407 76 1419V1456Q295 1450 348 1378Q411 1292 412 1118V764Q412 660 440 596T547 514V504Q412
465 412 258V-125Q412 -282 344 -365Q285 -437 76 -442V-403Q142 -387 180 -315Q207 -268 207 -139Z" />
<glyph unicode="~" glyph-name="asciitilde" horiz-adv-x="968" d="M53 430Q73 536 155 617T342 698Q434 698 516 633Q592 567 639 567Q760 567 821 715L895 690Q821 432 633 432Q533 432 455 500Q379 561 330 561Q285 561 224 518T127 406L53 430Z" />
</font>
</defs>
</svg>
